<svg width="502" height="261" viewBox="0 0 502 261" fill="none" xmlns="http://www.w3.org/2000/svg">
<g filter="url(#filter0_d_9_252)">
<ellipse cx="125.42" cy="121.696" rx="89.4201" ry="105.304" fill="#A7B7BF"/>
<ellipse cx="133.264" cy="121.696" rx="89.4201" ry="105.304" fill="#D2E4ED"/>
<ellipse cx="134.048" cy="121.892" rx="84.3216" ry="102.362" fill="#B5C6CF"/>
<path d="M206.016 151.307L199.545 167.583L192.681 177.976L190.132 182.486L185.033 187.192L174.836 197.389L169.346 200.331L162.678 204.253L158.168 206.214L150.52 208.567L145.422 209.94L137.382 210.332H125.42L119.537 208.959L113.262 207.194L106.595 204.645L100.712 201.115L94.6329 196.997L89.5344 192.487L78.7491 180.917L75.2193 174.838L72.0818 168.955L68.7481 160.915L65.8067 153.268L63.6496 144.836L63.0613 135.815L61.8848 127.775V120.127L63.0613 110.911L64.0418 103.067L66.395 94.4387L69.3364 86.0066L72.474 79.3393L75.2193 73.6525L80.71 65.4164L84.4359 60.9062L95.2212 49.7287L102.281 44.6302L109.536 40.7082L113.85 38.5512L121.106 36.198L127.381 34.237H133.46L145.618 33.8448L153.462 35.4136L159.149 37.1785L165.032 39.9238L170.522 42.277L176.209 46.395L181.112 49.7287L186.014 54.6311L190.132 58.9452L194.446 65.4164L197.976 70.1227L201.506 77.3783L204.055 82.6729L206.408 90.1246L207.781 95.6153" stroke="#D2E4ED" stroke-width="4"/>
<path d="M76.5918 75.4172L72.6699 72.6719L78.945 63.4553L82.6708 66.2007L76.5918 75.4172Z" fill="#D2E4ED"/>
<path d="M70.7089 77.3782L65.8065 87.9674L69.7284 89.9284L74.8269 79.7314L70.7089 77.3782Z" fill="#D2E4ED"/>
<path d="M64.2377 93.0659L61.6885 104.44L65.6104 105.812L68.5518 94.0464L64.2377 93.0659Z" fill="#D2E4ED"/>
<path d="M60.3158 110.126L59.9236 122.088H64.2377L65.0221 110.126H60.3158Z" fill="#D2E4ED"/>
<path d="M103.261 200.331L101.3 204.057L92.8678 198.566L95.221 194.84L103.261 200.331Z" fill="#D2E4ED"/>
<path d="M85.024 184.839L82.0825 187.977L89.3381 195.232L92.0834 192.095L85.024 184.839Z" fill="#D2E4ED"/>
<path d="M82.4747 181.309L79.3372 184.251L72.6699 175.623L76.3957 173.073L82.4747 181.309Z" fill="#D2E4ED"/>
<path d="M66.0026 160.719L70.5128 171.112L74.4347 168.563L69.7284 158.562L66.0026 160.719Z" fill="#D2E4ED"/>
<path d="M61.4924 144.639L64.4338 155.817L68.5518 154.248L65.6104 143.267L61.4924 144.639Z" fill="#D2E4ED"/>
<path d="M59.9236 127.187L60.708 138.953L65.0221 138.756L64.2377 126.991L59.9236 127.187Z" fill="#D2E4ED"/>
<path d="M89.5342 51.8856L82.2786 59.3373L85.2201 62.8671L92.6717 55.0232L89.5342 51.8856Z" fill="#D2E4ED"/>
<path d="M93.26 48.552L95.6132 52.2778L103.653 46.1988L101.3 42.473L93.26 48.552Z" fill="#D2E4ED"/>
<path d="M105.418 40.1198L113.654 36.0018L116.007 39.7276L107.379 44.2379L105.418 40.1198Z" fill="#D2E4ED"/>
<path d="M118.753 34.0408L119.341 38.7472L128.557 36.5901L127.577 32.0799L118.753 34.0408Z" fill="#D2E4ED"/>
<path d="M132.283 31.6877V36.0018H141.5V31.6877H132.283Z" fill="#D2E4ED"/>
<path d="M145.226 31.6877V36.0018L153.854 37.3745L154.246 33.2565L145.226 31.6877Z" fill="#D2E4ED"/>
<path d="M157.972 34.433L157.384 38.7472L165.62 42.0808L166.404 37.9628L157.972 34.433Z" fill="#D2E4ED"/>
<path d="M170.326 39.7276L168.365 43.4535L176.209 48.3559L177.778 44.6301L170.326 39.7276Z" fill="#D2E4ED"/>
<path d="M181.111 46.9832L179.15 50.3169L185.818 56.9842L187.975 53.6505L181.111 46.9832Z" fill="#D2E4ED"/>
<path d="M190.72 56.9842L187.975 59.1412L194.25 67.3773L196.211 64.2397L190.72 56.9842Z" fill="#D2E4ED"/>
<path d="M195.819 70.5148L198.368 68.1617L203.27 76.3977L200.525 78.947L195.819 70.5148Z" fill="#D2E4ED"/>
<path d="M201.701 82.4767L204.839 80.5158L207.977 89.5362L205.231 91.105L201.701 82.4767Z" fill="#D2E4ED"/>
<path d="M206.016 95.0269L209.349 94.2425L210.918 103.459L208.369 104.636L206.016 95.0269Z" fill="#D2E4ED"/>
<path d="M204.839 149.542L201.505 158.562L204.251 160.131L207.584 151.111L204.839 149.542Z" fill="#D2E4ED"/>
<path d="M195.034 170.916L198.172 173.073L202.682 164.837L199.937 162.484L195.034 170.916Z" fill="#D2E4ED"/>
<path d="M186.994 181.898L190.328 184.251L195.819 176.995L193.073 174.642L186.994 181.898Z" fill="#D2E4ED"/>
<path d="M178.562 191.114L180.523 193.664L186.994 187.977L184.837 185.035L178.562 191.114Z" fill="#D2E4ED"/>
<path d="M167.973 198.37L169.346 202.684L176.993 196.997L175.621 193.664L167.973 198.37Z" fill="#D2E4ED"/>
<path d="M156.207 204.449L157.384 208.175L165.424 204.449V200.331L156.207 204.449Z" fill="#D2E4ED"/>
<path d="M144.245 208.175L153.07 205.822L153.658 210.332L144.245 212.881V208.175Z" fill="#D2E4ED"/>
<path d="M131.695 208.175V212.881H140.715V208.175H131.695Z" fill="#D2E4ED"/>
<path d="M118.36 206.606V211.508L126.989 212.881L127.773 208.175L118.36 206.606Z" fill="#D2E4ED"/>
<path d="M106.791 201.507L105.222 206.606L113.654 210.332L115.615 205.822L106.791 201.507Z" fill="#D2E4ED"/>
<g filter="url(#filter1_i_9_252)">
<path d="M126.989 116.794C119.537 103.459 105.026 102.086 98.751 114.244C95.3248 127.266 95.1139 133.819 106.595 140.325C116.916 141.981 120.561 138.849 125.616 130.521C132.353 124.995 140.912 129.54 138.559 139.541C131.107 155.033 143.069 166.406 153.07 164.249C163.766 163.301 166.208 147.189 164.443 142.482C160.914 131.305 154.835 130.521 149.736 131.305C138.559 124.834 147.383 111.303 152.285 113.46C164.443 112.087 166.797 93.066 162.286 85.6144C150.521 71.1032 133.656 87.3792 137.186 101.302C140.324 106.597 139.721 111.303 137.97 113.46C135.813 117.97 129.93 118.951 126.989 116.794Z" fill="#C3D5DE"/>
</g>
<path d="M126.989 116.794C119.537 103.459 105.026 102.086 98.751 114.244C95.3248 127.266 95.1139 133.819 106.595 140.325C116.916 141.981 120.561 138.849 125.616 130.521C132.353 124.995 140.912 129.54 138.559 139.541C131.107 155.033 143.069 166.406 153.07 164.249C163.766 163.301 166.208 147.189 164.443 142.482C160.914 131.305 154.835 130.521 149.736 131.305C138.559 124.834 147.383 111.303 152.285 113.46C164.443 112.087 166.797 93.066 162.286 85.6144C150.521 71.1032 133.656 87.3792 137.186 101.302C140.324 106.597 139.721 111.303 137.97 113.46C135.813 117.97 129.93 118.951 126.989 116.794Z" stroke="#C3D5DE" stroke-width="2"/>
<ellipse cx="390.543" cy="121.304" rx="89.4201" ry="105.304" fill="#A7B7BF"/>
<ellipse cx="398.387" cy="121.304" rx="89.4201" ry="105.304" fill="#D2E4ED"/>
<ellipse cx="399.171" cy="121.5" rx="84.3216" ry="102.362" fill="#B5C6CF" fill-opacity="0.5"/>
<path d="M329.949 150.914L336.42 167.19L343.283 177.584L345.833 182.094L350.931 186.8L361.128 196.997L366.619 199.939L373.286 203.861L377.796 205.822L385.444 208.175L390.543 209.547L398.583 209.94H410.545L416.427 208.567L422.703 206.802L429.37 204.253L435.253 200.723L441.332 196.605L446.43 192.095L457.216 180.525L460.745 174.446L463.883 168.563L467.216 160.523L470.158 152.875L472.315 144.443L472.903 135.423L474.08 127.383V119.735L472.903 110.519L471.923 102.675L469.57 94.0464L466.628 85.6143L463.491 78.947L460.745 73.2602L455.255 65.0241L451.529 60.5139L440.743 49.3364L433.684 44.2379L426.428 40.316L422.114 38.1589L414.859 35.8057L408.584 33.8448H402.505L390.347 33.4526L382.503 35.0213L376.816 36.7862L370.933 39.5316L365.442 41.8847L359.755 46.0028L354.853 49.3364L349.951 54.2388L345.833 58.5529L341.518 65.0241L337.989 69.7305L334.459 76.986L331.91 82.2806L329.557 89.7323L328.184 95.223" stroke="#D2E4ED" stroke-width="4"/>
<path d="M459.373 75.0251L463.295 72.2797L457.02 63.0632L453.294 65.8085L459.373 75.0251Z" fill="#D2E4ED"/>
<path d="M465.256 76.9861L470.158 87.5753L466.236 89.5362L461.138 79.3392L465.256 76.9861Z" fill="#D2E4ED"/>
<path d="M471.727 92.6738L474.276 104.047L470.354 105.42L467.413 93.6543L471.727 92.6738Z" fill="#D2E4ED"/>
<path d="M475.649 109.734L476.041 121.696H471.727L470.943 109.734H475.649Z" fill="#D2E4ED"/>
<path d="M432.704 199.939L434.665 203.664L443.097 198.174L440.744 194.448L432.704 199.939Z" fill="#D2E4ED"/>
<path d="M450.941 184.447L453.882 187.585L446.627 194.84L443.881 191.703L450.941 184.447Z" fill="#D2E4ED"/>
<path d="M453.49 180.917L456.627 183.859L463.295 175.23L459.569 172.681L453.49 180.917Z" fill="#D2E4ED"/>
<path d="M469.962 160.327L465.452 170.72L461.53 168.171L466.236 158.17L469.962 160.327Z" fill="#D2E4ED"/>
<path d="M474.472 144.247L471.531 155.425L467.413 153.856L470.354 142.875L474.472 144.247Z" fill="#D2E4ED"/>
<path d="M476.041 126.795L475.257 138.56L470.943 138.364L471.727 126.599L476.041 126.795Z" fill="#D2E4ED"/>
<path d="M446.43 51.4935L453.686 58.9452L450.745 62.4749L443.293 54.631L446.43 51.4935Z" fill="#D2E4ED"/>
<path d="M442.705 48.1598L440.351 51.8857L432.311 45.8067L434.665 42.0808L442.705 48.1598Z" fill="#D2E4ED"/>
<path d="M430.547 39.7277L422.311 35.6097L419.957 39.3355L428.586 43.8457L430.547 39.7277Z" fill="#D2E4ED"/>
<path d="M417.212 33.6487L416.624 38.355L407.407 36.1979L408.388 31.6877L417.212 33.6487Z" fill="#D2E4ED"/>
<path d="M403.681 31.2955V35.6097H394.465V31.2955H403.681Z" fill="#D2E4ED"/>
<path d="M390.739 31.2955V35.6097L382.111 36.9823L381.719 32.8643L390.739 31.2955Z" fill="#D2E4ED"/>
<path d="M377.993 34.0409L378.581 38.355L370.345 41.6887L369.561 37.5706L377.993 34.0409Z" fill="#D2E4ED"/>
<path d="M365.639 39.3355L367.6 43.0613L359.756 47.9637L358.187 44.2379L365.639 39.3355Z" fill="#D2E4ED"/>
<path d="M354.853 46.5911L356.814 49.9247L350.147 56.592L347.99 53.2584L354.853 46.5911Z" fill="#D2E4ED"/>
<path d="M345.245 56.592L347.99 58.7491L341.715 66.9851L339.754 63.8476L345.245 56.592Z" fill="#D2E4ED"/>
<path d="M340.146 70.1227L337.597 67.7695L332.694 76.0056L335.44 78.5548L340.146 70.1227Z" fill="#D2E4ED"/>
<path d="M334.263 82.0846L331.126 80.1236L327.988 89.144L330.733 90.7128L334.263 82.0846Z" fill="#D2E4ED"/>
<path d="M329.949 94.6348L326.615 93.8504L325.047 103.067L327.596 104.243L329.949 94.6348Z" fill="#D2E4ED"/>
<path d="M331.126 149.15L334.459 158.17L331.714 159.739L328.38 150.718L331.126 149.15Z" fill="#D2E4ED"/>
<path d="M340.93 170.524L337.793 172.681L333.283 164.445L336.028 162.092L340.93 170.524Z" fill="#D2E4ED"/>
<path d="M348.97 181.506L345.637 183.859L340.146 176.603L342.891 174.25L348.97 181.506Z" fill="#D2E4ED"/>
<path d="M357.403 190.722L355.442 193.271L348.97 187.585L351.127 184.643L357.403 190.722Z" fill="#D2E4ED"/>
<path d="M367.992 197.978L366.619 202.292L358.971 196.605L360.344 193.271L367.992 197.978Z" fill="#D2E4ED"/>
<path d="M379.758 204.057L378.581 207.783L370.541 204.057V199.939L379.758 204.057Z" fill="#D2E4ED"/>
<path d="M391.719 207.783L382.895 205.429L382.307 209.94L391.719 212.489V207.783Z" fill="#D2E4ED"/>
<path d="M404.27 207.783V212.489H395.249V207.783H404.27Z" fill="#D2E4ED"/>
<path d="M417.604 206.214V211.116L408.976 212.489L408.192 207.783L417.604 206.214Z" fill="#D2E4ED"/>
<path d="M429.174 201.115L430.743 206.214L422.311 209.94L420.35 205.429L429.174 201.115Z" fill="#D2E4ED"/>
<g filter="url(#filter2_i_9_252)">
<path d="M410.544 109.342L407.211 56.0037L376.816 122.284L410.544 109.342Z" fill="#C3D5DE"/>
<path d="M407.211 142.482L410.544 109.342L376.816 122.284L407.211 142.482Z" fill="#C3D5DE"/>
<path d="M407.211 56.0037L410.544 109.342L434.468 122.284L407.211 56.0037Z" fill="#C3D5DE"/>
<path d="M410.544 109.342L407.211 142.482L434.468 122.284L410.544 109.342Z" fill="#C3D5DE"/>
<path d="M407.211 148.561L376.816 128.363L407.211 186.996V148.561Z" fill="#C3D5DE"/>
<path d="M434.468 126.599L407.211 148.561V186.996L434.468 126.599Z" fill="#C3D5DE"/>
</g>
<path d="M407.211 56.0037L410.544 109.342M407.211 56.0037L376.816 122.284M407.211 56.0037L434.468 122.284M410.544 109.342L407.211 142.482M410.544 109.342L376.816 122.284M410.544 109.342L434.468 122.284M407.211 142.482L376.816 122.284M407.211 142.482L434.468 122.284M407.211 148.561L376.816 128.363L407.211 186.996M407.211 148.561L434.468 126.599L407.211 186.996M407.211 148.561V186.996" stroke="#A7B7BF" stroke-width="2"/>
<ellipse cx="271.316" cy="121.304" rx="89.4201" ry="105.304" fill="#C8A00D"/>
<ellipse cx="279.16" cy="121.304" rx="89.4201" ry="105.304" fill="#E6BC21"/>
<ellipse cx="279.944" cy="121.5" rx="84.3216" ry="102.362" fill="#DEB318"/>
<g filter="url(#filter3_i_9_252)">
<path fill-rule="evenodd" clip-rule="evenodd" d="M272.1 56.592V77.1822H250.334V89.1441H263.864L264.649 154.052L254.256 154.836L252.295 168.955L272.297 168.171V187.389L282.886 186.408V166.994L289.945 166.798L290.141 185.428L299.946 184.643V166.014C330.341 166.014 337.597 123.265 315.634 115.617C327.792 108.165 324.654 77.1822 299.946 77.1822V56.592H289.749V77.1822H282.69V56.592H272.1ZM282.69 90.1246V113.852H295.828C305.633 110.911 309.733 96.2381 295.828 90.1246H282.69ZM282.886 152.875L282.69 125.618H297.985C314.787 129.662 310.143 148.365 297.985 151.503L282.886 152.875Z" fill="#DEB318"/>
</g>
<path d="M351.912 150.914L345.441 167.19L338.577 177.584L336.028 182.094L330.929 186.8L320.732 196.997L315.242 199.939L308.574 203.861L304.064 205.822L296.416 208.175L291.318 209.547L283.278 209.94H271.316L265.433 208.567L259.158 206.802L252.491 204.253L246.608 200.723L240.529 196.605L235.43 192.095L224.645 180.525L221.115 174.446L217.978 168.563L214.644 160.523L211.703 152.875L209.546 144.443L208.957 135.423L207.781 127.383V119.735L208.957 110.519L209.938 102.675L212.291 94.0464L215.232 85.6143L218.37 78.947L221.115 73.2602L226.606 65.0241L230.332 60.5139L241.117 49.3364L248.177 44.2379L255.432 40.316L259.746 38.1589L267.002 35.8057L273.277 33.8448H279.356L291.514 33.4526L299.358 35.0213L305.045 36.7862L310.928 39.5316L316.418 41.8847L322.105 46.0028L327.008 49.3364L331.91 54.2388L336.028 58.5529L340.342 65.0241L343.872 69.7305L347.402 76.986L349.951 82.2806L352.304 89.7323L353.677 95.223" stroke="#E6BC21" stroke-width="4"/>
<path d="M222.488 75.0251L218.566 72.2797L224.841 63.0632L228.567 65.8085L222.488 75.0251Z" fill="#E6BC21"/>
<path d="M216.605 76.9861L211.702 87.5753L215.624 89.5362L220.723 79.3392L216.605 76.9861Z" fill="#E6BC21"/>
<path d="M210.134 92.6738L207.584 104.047L211.506 105.42L214.448 93.6543L210.134 92.6738Z" fill="#E6BC21"/>
<path d="M206.212 109.734L205.82 121.696H210.134L210.918 109.734H206.212Z" fill="#E6BC21"/>
<path d="M249.157 199.939L247.196 203.664L238.764 198.174L241.117 194.448L249.157 199.939Z" fill="#E6BC21"/>
<path d="M230.92 184.447L227.979 187.585L235.234 194.84L237.979 191.703L230.92 184.447Z" fill="#E6BC21"/>
<path d="M228.371 180.917L225.233 183.859L218.566 175.23L222.292 172.681L228.371 180.917Z" fill="#E6BC21"/>
<path d="M211.899 160.327L216.409 170.72L220.331 168.171L215.624 158.17L211.899 160.327Z" fill="#E6BC21"/>
<path d="M207.388 144.247L210.33 155.425L214.448 153.856L211.506 142.875L207.388 144.247Z" fill="#E6BC21"/>
<path d="M205.82 126.795L206.604 138.56L210.918 138.364L210.134 126.599L205.82 126.795Z" fill="#E6BC21"/>
<path d="M235.43 51.4935L228.175 58.9452L231.116 62.4749L238.568 54.631L235.43 51.4935Z" fill="#E6BC21"/>
<path d="M239.156 48.1598L241.509 51.8857L249.549 45.8067L247.196 42.0808L239.156 48.1598Z" fill="#E6BC21"/>
<path d="M251.314 39.7277L259.55 35.6097L261.903 39.3355L253.275 43.8457L251.314 39.7277Z" fill="#E6BC21"/>
<path d="M264.649 33.6487L265.237 38.355L274.453 36.1979L273.473 31.6877L264.649 33.6487Z" fill="#E6BC21"/>
<path d="M278.179 31.2955V35.6097H287.396V31.2955H278.179Z" fill="#E6BC21"/>
<path d="M291.122 31.2955V35.6097L299.75 36.9823L300.142 32.8643L291.122 31.2955Z" fill="#E6BC21"/>
<path d="M303.868 34.0409L303.28 38.355L311.516 41.6887L312.3 37.5706L303.868 34.0409Z" fill="#E6BC21"/>
<path d="M316.222 39.3355L314.261 43.0613L322.105 47.9637L323.674 44.2379L316.222 39.3355Z" fill="#E6BC21"/>
<path d="M327.007 46.5911L325.046 49.9247L331.714 56.592L333.871 53.2584L327.007 46.5911Z" fill="#E6BC21"/>
<path d="M336.616 56.592L333.871 58.7491L340.146 66.9851L342.107 63.8476L336.616 56.592Z" fill="#E6BC21"/>
<path d="M341.715 70.1227L344.264 67.7695L349.166 76.0056L346.421 78.5548L341.715 70.1227Z" fill="#E6BC21"/>
<path d="M347.597 82.0846L350.735 80.1236L353.873 89.144L351.127 90.7128L347.597 82.0846Z" fill="#E6BC21"/>
<path d="M351.912 94.6348L355.245 93.8504L356.814 103.067L354.265 104.243L351.912 94.6348Z" fill="#E6BC21"/>
<path d="M350.735 149.15L347.401 158.17L350.147 159.739L353.48 150.718L350.735 149.15Z" fill="#E6BC21"/>
<path d="M340.93 170.524L344.068 172.681L348.578 164.445L345.833 162.092L340.93 170.524Z" fill="#E6BC21"/>
<path d="M332.89 181.506L336.224 183.859L341.715 176.603L338.969 174.25L332.89 181.506Z" fill="#E6BC21"/>
<path d="M324.458 190.722L326.419 193.271L332.89 187.585L330.733 184.643L324.458 190.722Z" fill="#E6BC21"/>
<path d="M313.869 197.978L315.242 202.292L322.889 196.605L321.517 193.271L313.869 197.978Z" fill="#E6BC21"/>
<path d="M302.103 204.057L303.28 207.783L311.32 204.057V199.939L302.103 204.057Z" fill="#E6BC21"/>
<path d="M290.141 207.783L298.966 205.429L299.554 209.94L290.141 212.489V207.783Z" fill="#E6BC21"/>
<path d="M277.591 207.783V212.489H286.611V207.783H277.591Z" fill="#E6BC21"/>
<path d="M264.256 206.214V211.116L272.885 212.489L273.669 207.783L264.256 206.214Z" fill="#E6BC21"/>
<path d="M252.687 201.115L251.118 206.214L259.55 209.94L261.511 205.429L252.687 201.115Z" fill="#E6BC21"/>
</g>
<defs>
<filter id="filter0_d_9_252" x="0" y="0" width="501.807" height="261" filterUnits="userSpaceOnUse" color-interpolation-filters="sRGB">
<feFlood flood-opacity="0" result="BackgroundImageFix"/>
<feColorMatrix in="SourceAlpha" type="matrix" values="0 0 0 0 0 0 0 0 0 0 0 0 0 0 0 0 0 0 127 0" result="hardAlpha"/>
<feOffset dx="-11" dy="9"/>
<feGaussianBlur stdDeviation="12.5"/>
<feComposite in2="hardAlpha" operator="out"/>
<feColorMatrix type="matrix" values="0 0 0 0 0 0 0 0 0 0 0 0 0 0 0 0 0 0 0.25 0"/>
<feBlend mode="normal" in2="BackgroundImageFix" result="effect1_dropShadow_9_252"/>
<feBlend mode="normal" in="SourceGraphic" in2="effect1_dropShadow_9_252" result="shape"/>
</filter>
<filter id="filter1_i_9_252" x="95.697" y="78.938" width="70.269" height="93.5777" filterUnits="userSpaceOnUse" color-interpolation-filters="sRGB">
<feFlood flood-opacity="0" result="BackgroundImageFix"/>
<feBlend mode="normal" in="SourceGraphic" in2="BackgroundImageFix" result="shape"/>
<feColorMatrix in="SourceAlpha" type="matrix" values="0 0 0 0 0 0 0 0 0 0 0 0 0 0 0 0 0 0 127 0" result="hardAlpha"/>
<feOffset dy="9"/>
<feGaussianBlur stdDeviation="3.5"/>
<feComposite in2="hardAlpha" operator="arithmetic" k2="-1" k3="1"/>
<feColorMatrix type="matrix" values="0 0 0 0 0 0 0 0 0 0 0 0 0 0 0 0 0 0 0.25 0"/>
<feBlend mode="normal" in2="shape" result="effect1_innerShadow_9_252"/>
</filter>
<filter id="filter2_i_9_252" x="374.148" y="53.4958" width="61.5413" height="135.793" filterUnits="userSpaceOnUse" color-interpolation-filters="sRGB">
<feFlood flood-opacity="0" result="BackgroundImageFix"/>
<feBlend mode="normal" in="SourceGraphic" in2="BackgroundImageFix" result="shape"/>
<feColorMatrix in="SourceAlpha" type="matrix" values="0 0 0 0 0 0 0 0 0 0 0 0 0 0 0 0 0 0 127 0" result="hardAlpha"/>
<feOffset/>
<feGaussianBlur stdDeviation="28"/>
<feComposite in2="hardAlpha" operator="arithmetic" k2="-1" k3="1"/>
<feColorMatrix type="matrix" values="0 0 0 0 0 0 0 0 0 0 0 0 0 0 0 0 0 0 0.25 0"/>
<feBlend mode="normal" in2="shape" result="effect1_innerShadow_9_252"/>
</filter>
<filter id="filter3_i_9_252" x="250.334" y="56.592" width="78.0251" height="134.797" filterUnits="userSpaceOnUse" color-interpolation-filters="sRGB">
<feFlood flood-opacity="0" result="BackgroundImageFix"/>
<feBlend mode="normal" in="SourceGraphic" in2="BackgroundImageFix" result="shape"/>
<feColorMatrix in="SourceAlpha" type="matrix" values="0 0 0 0 0 0 0 0 0 0 0 0 0 0 0 0 0 0 127 0" result="hardAlpha"/>
<feOffset dy="4"/>
<feGaussianBlur stdDeviation="27.5"/>
<feComposite in2="hardAlpha" operator="arithmetic" k2="-1" k3="1"/>
<feColorMatrix type="matrix" values="0 0 0 0 0 0 0 0 0 0 0 0 0 0 0 0 0 0 0.25 0"/>
<feBlend mode="normal" in2="shape" result="effect1_innerShadow_9_252"/>
</filter>
</defs>
</svg>
